<svg width="20" height="20" viewBox="0 0 20 20" fill="none" xmlns="http://www.w3.org/2000/svg">
<path d="M8.45504 2.70717C8.57986 2.39976 8.79355 2.13657 9.06878 1.95127C9.344 1.76597 9.66825 1.66699 10 1.66699C10.3318 1.66699 10.6561 1.76597 10.9313 1.95127C11.2065 2.13657 11.4202 2.39976 11.545 2.70717C12.7769 3.04621 13.8634 3.78011 14.6379 4.79622C15.4124 5.81234 15.8321 7.05454 15.8325 8.33217V12.2472L17.36 14.5372C17.4438 14.6627 17.4918 14.8087 17.4991 14.9594C17.5064 15.1101 17.4726 15.26 17.4014 15.3931C17.3302 15.5261 17.2242 15.6374 17.0948 15.7149C16.9653 15.7925 16.8172 15.8334 16.6663 15.8334H12.8875C12.7872 16.5277 12.4401 17.1625 11.9098 17.6217C11.3795 18.0809 10.7015 18.3336 10 18.3336C9.29857 18.3336 8.62059 18.0809 8.09029 17.6217C7.55999 17.1625 7.21288 16.5277 7.11254 15.8334H3.33379C3.18288 15.8334 3.03479 15.7925 2.90533 15.7149C2.77586 15.6374 2.66987 15.5261 2.59866 15.3931C2.52745 15.26 2.49369 15.1101 2.50097 14.9594C2.50826 14.8087 2.55633 14.6627 2.64004 14.5372L4.16629 12.2472V8.33342C4.16629 5.64592 5.98379 3.38342 8.45504 2.70717ZM8.82129 15.8322C8.90736 16.076 9.06694 16.2872 9.27806 16.4366C9.48918 16.586 9.74143 16.6662 10 16.6662C10.2587 16.6662 10.5109 16.586 10.722 16.4366C10.9331 16.2872 11.0927 16.076 11.1788 15.8322H8.82129ZM10 4.16717C9.45282 4.16717 8.91095 4.27498 8.4054 4.48443C7.89984 4.69388 7.4405 5.00087 7.05362 5.38788C6.66673 5.77488 6.35987 6.23432 6.15057 6.73993C5.94127 7.24555 5.83363 7.78745 5.83379 8.33467V12.4997C5.83379 12.6647 5.78379 12.8247 5.69379 12.9622L4.89004 14.1672H15.11L14.3063 12.9622C14.215 12.8252 14.1663 12.6643 14.1663 12.4997V8.33342C14.1663 7.22846 13.7273 6.16876 12.946 5.38744C12.1647 4.60611 11.105 4.16717 10 4.16717Z" fill="#131314"/>
</svg>
