<svg width="20" height="20" viewBox="0 0 20 20" fill="none" xmlns="http://www.w3.org/2000/svg">
<path d="M1.66724 4.99975C1.66724 4.07975 2.41349 3.3335 3.33349 3.3335H16.6672C17.5872 3.3335 18.3335 4.07975 18.3335 4.99975V14.9997C18.3335 15.9197 17.5872 16.666 16.6672 16.666H3.33349C2.89157 16.666 2.46775 16.4904 2.15527 16.178C1.84279 15.8655 1.66724 15.4417 1.66724 14.9997V4.99975ZM4.59974 4.99975L9.99974 9.72475L15.4035 4.99975H4.59974ZM16.6672 6.10725L10.5497 11.4597C10.3978 11.5926 10.2028 11.6658 10.001 11.6658C9.79916 11.6658 9.60418 11.5926 9.45224 11.4597L3.33349 6.10725V14.9997H16.6672V6.10725Z" fill="#131314"/>
</svg>
