<svg width="20" height="20" viewBox="0 0 20 20" fill="none" xmlns="http://www.w3.org/2000/svg">
<path d="M1.66724 4.16674C1.66724 3.24549 2.41349 2.50049 3.33349 2.50049H16.6672C17.5872 2.50049 18.3335 3.24549 18.3335 4.16674V13.333C18.3335 14.2542 17.5872 14.9992 16.6672 14.9992H12.846L10.5885 17.2555C10.4321 17.4117 10.2201 17.4995 9.99911 17.4995C9.77807 17.4995 9.56608 17.4117 9.40974 17.2555L7.15474 14.9992H3.33349C2.89157 14.9992 2.46775 14.8237 2.15527 14.5112C1.84279 14.1987 1.66724 13.7749 1.66724 13.333V4.16674ZM16.6672 4.16674H3.33349V13.333H7.50099C7.72099 13.333 7.93349 13.4205 8.08974 13.5767L10.001 15.488L11.911 13.5767C11.9885 13.4993 12.0805 13.438 12.1817 13.3962C12.283 13.3543 12.3915 13.3329 12.501 13.333H16.6672V4.16674ZM5.00099 7.08299C5.00099 6.62299 5.37349 6.24924 5.83349 6.24924H14.1672C14.3884 6.24924 14.6004 6.33708 14.7568 6.49344C14.9131 6.6498 15.001 6.86186 15.001 7.08299C15.001 7.30411 14.9131 7.51618 14.7568 7.67254C14.6004 7.8289 14.3884 7.91674 14.1672 7.91674H5.83349C5.61258 7.91641 5.40083 7.82842 5.24474 7.6721C5.08866 7.51577 5.00099 7.3039 5.00099 7.08299ZM5.00099 10.4167C5.00099 9.95674 5.37349 9.58299 5.83349 9.58299H10.8335C11.0489 9.59133 11.2526 9.68276 11.4021 9.83809C11.5515 9.99342 11.635 10.2006 11.635 10.4161C11.635 10.6316 11.5515 10.8388 11.4021 10.9941C11.2526 11.1495 11.0489 11.2409 10.8335 11.2492H5.83349C5.6128 11.2489 5.40124 11.1611 5.24519 11.005C5.08913 10.849 5.00132 10.6374 5.00099 10.4167Z" fill="#131314"/>
</svg>
